<?xml version="1.0" standalone="no"?>
<!DOCTYPE svg PUBLIC "-//W3C//DTD SVG 20010904//EN"
 "http://www.w3.org/TR/2001/REC-SVG-20010904/DTD/svg10.dtd">
<svg version="1.0" xmlns="http://www.w3.org/2000/svg"
 width="510.000000pt" height="431.000000pt" viewBox="0 0 510.000000 431.000000"
 preserveAspectRatio="xMidYMid meet">

<g transform="translate(0.000000,431.000000) scale(0.100000,-0.100000)"
fill="#000000" stroke="none">
<path d="M2972 2187 c-1090 -1090 -1982 -1987 -1982 -1993 0 -5 14 -23 30 -39
l31 -29 1991 1992 1992 1991 -29 31 c-16 16 -34 30 -39 30 -6 0 -903 -892
-1994 -1983z"/>
<path d="M402 3873 l3 -37 71 -12 c81 -13 185 -64 251 -122 l43 -37 -125 -835
c-139 -928 -136 -911 -172 -1030 -61 -204 -152 -300 -313 -330 -95 -18 -92
-16 -88 -52 l3 -33 458 -3 457 -2 0 39 c0 38 0 38 -47 45 -64 8 -141 46 -180
87 -55 58 -76 120 -81 239 -3 94 8 180 107 850 116 775 120 804 127 798 2 -3
183 -458 402 -1011 220 -554 402 -1011 406 -1014 4 -4 44 30 90 76 l83 82 374
935 c259 649 376 930 381 917 4 -10 35 -216 68 -458 34 -242 65 -452 68 -468
7 -26 17 -17 251 217 l244 244 -36 264 c-21 144 -37 286 -37 314 0 66 21 136
55 180 33 43 114 90 183 105 52 12 52 12 52 51 l0 38 -428 0 -428 0 -328 -822
c-181 -453 -332 -826 -335 -830 -4 -4 -96 218 -205 495 -110 276 -257 649
-329 830 l-129 327 -460 0 -459 0 3 -37z"/>
<path d="M4160 2765 c-64 -64 -64 -65 -35 -65 59 -1 182 -28 250 -55 250 -99
442 -332 532 -647 l28 -98 38 0 37 0 0 460 0 460 -37 0 c-34 0 -41 -5 -70 -49
-33 -50 -81 -81 -128 -81 -14 0 -89 20 -165 45 -128 42 -334 95 -370 95 -9 0
-45 -29 -80 -65z"/>
<path d="M3027 1632 c-349 -349 -322 -306 -287 -467 28 -125 56 -206 105 -305
139 -276 379 -487 668 -589 166 -58 271 -75 482 -75 115 -1 216 4 257 12 299
56 550 204 728 427 49 61 50 64 50 130 l0 68 -83 -80 c-178 -171 -354 -268
-549 -303 -86 -16 -290 -14 -374 4 -351 74 -583 333 -673 749 -41 191 -50 472
-22 672 5 33 8 61 7 62 -1 1 -140 -136 -309 -305z"/>
</g>
</svg>
